<mxfile host="65bd71144e">
    <diagram id="Zk4Y6saqrpj1dJL2eEQI" name="Page-1">
        <mxGraphModel dx="882" dy="2606" grid="1" gridSize="10" guides="1" tooltips="1" connect="1" arrows="1" fold="1" page="1" pageScale="1" pageWidth="850" pageHeight="1100" math="0" shadow="0">
            <root>
                <mxCell id="0"/>
                <mxCell id="1" parent="0"/>
                <mxCell id="2" value="" style="whiteSpace=wrap;html=1;aspect=fixed;" parent="1" vertex="1">
                    <mxGeometry x="50" y="-1070" width="770" height="770" as="geometry"/>
                </mxCell>
                <mxCell id="3" value="" style="rounded=0;whiteSpace=wrap;html=1;" parent="1" vertex="1">
                    <mxGeometry x="50" y="-1070" width="770" height="60" as="geometry"/>
                </mxCell>
                <mxCell id="4" value="Articulos" style="text;html=1;strokeColor=none;fillColor=none;align=center;verticalAlign=middle;whiteSpace=wrap;rounded=0;" parent="1" vertex="1">
                    <mxGeometry x="300" y="-1050" width="60" height="30" as="geometry"/>
                </mxCell>
                <mxCell id="5" value="Pedidos" style="text;html=1;strokeColor=none;fillColor=none;align=center;verticalAlign=middle;whiteSpace=wrap;rounded=0;" parent="1" vertex="1">
                    <mxGeometry x="530" y="-1050" width="60" height="30" as="geometry"/>
                </mxCell>
                <mxCell id="6" value="Lista de Pedidos" style="swimlane;childLayout=stackLayout;resizeParent=1;resizeParentMax=0;startSize=20;html=1;" parent="1" vertex="1">
                    <mxGeometry x="102.50000000000045" y="-936" width="674.9999999999995" height="480" as="geometry"/>
                </mxCell>
                <mxCell id="7" value="ID Pedido" style="swimlane;startSize=20;html=1;" parent="6" vertex="1">
                    <mxGeometry y="20" width="184.99999999999955" height="460" as="geometry"/>
                </mxCell>
                <mxCell id="8" value="sdfghjkl456789" style="text;html=1;strokeColor=none;fillColor=none;align=center;verticalAlign=middle;whiteSpace=wrap;rounded=0;" parent="7" vertex="1">
                    <mxGeometry x="62.499999999999545" y="36" width="60" height="30" as="geometry"/>
                </mxCell>
                <mxCell id="11" value="Precio sin impuesto" style="swimlane;startSize=20;html=1;" parent="6" vertex="1">
                    <mxGeometry x="184.99999999999955" y="20" width="155" height="460" as="geometry"/>
                </mxCell>
                <mxCell id="12" value="50" style="text;html=1;strokeColor=none;fillColor=none;align=center;verticalAlign=middle;whiteSpace=wrap;rounded=0;" parent="11" vertex="1">
                    <mxGeometry x="47" y="36" width="60" height="30" as="geometry"/>
                </mxCell>
                <mxCell id="13" value="Precio con impuesto" style="swimlane;startSize=20;html=1;" parent="6" vertex="1">
                    <mxGeometry x="339.99999999999955" y="20" width="145" height="460" as="geometry"/>
                </mxCell>
                <mxCell id="20" value="55" style="text;html=1;strokeColor=none;fillColor=none;align=center;verticalAlign=middle;whiteSpace=wrap;rounded=0;" parent="13" vertex="1">
                    <mxGeometry x="42.5" y="36" width="60" height="30" as="geometry"/>
                </mxCell>
                <mxCell id="15" value="BTN Editar" style="swimlane;startSize=20;html=1;" parent="6" vertex="1">
                    <mxGeometry x="484.99999999999955" y="20" width="190" height="460" as="geometry"/>
                </mxCell>
                <mxCell id="14" value="Editar" style="shape=ext;double=1;rounded=1;whiteSpace=wrap;html=1;" parent="15" vertex="1">
                    <mxGeometry x="65" y="30" width="60" height="40" as="geometry"/>
                </mxCell>
                <mxCell id="17" value="Crear Pedido" style="shape=ext;double=1;rounded=0;whiteSpace=wrap;html=1;" parent="1" vertex="1">
                    <mxGeometry x="380" y="-997" width="120" height="50" as="geometry"/>
                </mxCell>
                <mxCell id="21" style="edgeStyle=none;html=1;exitX=1;exitY=0.5;exitDx=0;exitDy=0;entryX=0;entryY=0.084;entryDx=0;entryDy=0;entryPerimeter=0;" parent="1" source="14" target="22" edge="1">
                    <mxGeometry relative="1" as="geometry">
                        <mxPoint x="900" y="-866" as="targetPoint"/>
                    </mxGeometry>
                </mxCell>
                <mxCell id="22" value="" style="whiteSpace=wrap;html=1;aspect=fixed;" parent="1" vertex="1">
                    <mxGeometry x="910" y="-540" width="770" height="770" as="geometry"/>
                </mxCell>
                <mxCell id="23" value="" style="rounded=0;whiteSpace=wrap;html=1;" parent="1" vertex="1">
                    <mxGeometry x="910" y="-540" width="770" height="60" as="geometry"/>
                </mxCell>
                <mxCell id="24" value="Articulos" style="text;html=1;strokeColor=none;fillColor=none;align=center;verticalAlign=middle;whiteSpace=wrap;rounded=0;" parent="1" vertex="1">
                    <mxGeometry x="1160" y="-520" width="60" height="30" as="geometry"/>
                </mxCell>
                <mxCell id="25" value="Pedidos" style="text;html=1;strokeColor=none;fillColor=none;align=center;verticalAlign=middle;whiteSpace=wrap;rounded=0;" parent="1" vertex="1">
                    <mxGeometry x="1390" y="-520" width="60" height="30" as="geometry"/>
                </mxCell>
                <mxCell id="26" value="Pedido&amp;nbsp;&lt;span style=&quot;font-weight: 400;&quot;&gt;sdfghjkl456789&lt;/span&gt;" style="swimlane;childLayout=stackLayout;resizeParent=1;resizeParentMax=0;startSize=20;html=1;" parent="1" vertex="1">
                    <mxGeometry x="962.5000000000005" y="-409" width="674.9999999999995" height="480" as="geometry"/>
                </mxCell>
                <mxCell id="27" value="Referencia" style="swimlane;startSize=20;html=1;" parent="26" vertex="1">
                    <mxGeometry y="20" width="184.99999999999955" height="460" as="geometry"/>
                </mxCell>
                <mxCell id="28" value="123456" style="text;html=1;strokeColor=none;fillColor=none;align=center;verticalAlign=middle;whiteSpace=wrap;rounded=0;" parent="27" vertex="1">
                    <mxGeometry x="62.499999999999545" y="36" width="60" height="30" as="geometry"/>
                </mxCell>
                <mxCell id="37" value="123457" style="text;html=1;strokeColor=none;fillColor=none;align=center;verticalAlign=middle;whiteSpace=wrap;rounded=0;" parent="27" vertex="1">
                    <mxGeometry x="62.499999999999545" y="70" width="60" height="30" as="geometry"/>
                </mxCell>
                <mxCell id="33" value="Cantidad" style="swimlane;startSize=20;html=1;" parent="26" vertex="1">
                    <mxGeometry x="184.99999999999955" y="20" width="190" height="460" as="geometry"/>
                </mxCell>
                <mxCell id="34" value="1" style="shape=ext;double=1;rounded=1;whiteSpace=wrap;html=1;" parent="33" vertex="1">
                    <mxGeometry x="71" y="33" width="45" height="30" as="geometry"/>
                </mxCell>
                <mxCell id="43" value="+" style="text;html=1;strokeColor=none;fillColor=none;align=center;verticalAlign=middle;whiteSpace=wrap;rounded=0;" parent="33" vertex="1">
                    <mxGeometry x="112.5" y="33" width="60" height="30" as="geometry"/>
                </mxCell>
                <mxCell id="45" value="+" style="text;html=1;strokeColor=none;fillColor=none;align=center;verticalAlign=middle;whiteSpace=wrap;rounded=0;" parent="33" vertex="1">
                    <mxGeometry x="112.5" y="70" width="60" height="30" as="geometry"/>
                </mxCell>
                <mxCell id="46" value="-" style="text;html=1;strokeColor=none;fillColor=none;align=center;verticalAlign=middle;whiteSpace=wrap;rounded=0;" parent="33" vertex="1">
                    <mxGeometry x="22.5" y="70" width="60" height="30" as="geometry"/>
                </mxCell>
                <mxCell id="47" value="-" style="text;html=1;strokeColor=none;fillColor=none;align=center;verticalAlign=middle;whiteSpace=wrap;rounded=0;" parent="33" vertex="1">
                    <mxGeometry x="22.5" y="33" width="60" height="30" as="geometry"/>
                </mxCell>
                <mxCell id="29" value="Precio sin impuestp" style="swimlane;startSize=20;html=1;" parent="26" vertex="1">
                    <mxGeometry x="374.99999999999955" y="20" width="155" height="460" as="geometry"/>
                </mxCell>
                <mxCell id="30" value="50" style="text;html=1;strokeColor=none;fillColor=none;align=center;verticalAlign=middle;whiteSpace=wrap;rounded=0;" parent="29" vertex="1">
                    <mxGeometry x="47" y="36" width="60" height="30" as="geometry"/>
                </mxCell>
                <mxCell id="38" value="50" style="text;html=1;strokeColor=none;fillColor=none;align=center;verticalAlign=middle;whiteSpace=wrap;rounded=0;" parent="29" vertex="1">
                    <mxGeometry x="47.5" y="71" width="60" height="30" as="geometry"/>
                </mxCell>
                <mxCell id="31" value="Precio con impuestp" style="swimlane;startSize=20;html=1;" parent="26" vertex="1">
                    <mxGeometry x="529.9999999999995" y="20" width="145" height="460" as="geometry"/>
                </mxCell>
                <mxCell id="32" value="55" style="text;html=1;strokeColor=none;fillColor=none;align=center;verticalAlign=middle;whiteSpace=wrap;rounded=0;" parent="31" vertex="1">
                    <mxGeometry x="42.5" y="36" width="60" height="30" as="geometry"/>
                </mxCell>
                <mxCell id="39" value="55" style="text;html=1;strokeColor=none;fillColor=none;align=center;verticalAlign=middle;whiteSpace=wrap;rounded=0;" parent="31" vertex="1">
                    <mxGeometry x="42.5" y="71" width="60" height="30" as="geometry"/>
                </mxCell>
                <mxCell id="40" value="1" style="shape=ext;double=1;rounded=1;whiteSpace=wrap;html=1;" parent="1" vertex="1">
                    <mxGeometry x="1220" y="-319" width="45" height="30" as="geometry"/>
                </mxCell>
                <mxCell id="57" value="Guardar" style="shape=ext;double=1;rounded=1;whiteSpace=wrap;html=1;" parent="1" vertex="1">
                    <mxGeometry x="1290" y="-459" width="60" height="40" as="geometry"/>
                </mxCell>
                <mxCell id="58" value="" style="whiteSpace=wrap;html=1;aspect=fixed;" parent="1" vertex="1">
                    <mxGeometry x="910" y="-1330" width="770" height="770" as="geometry"/>
                </mxCell>
                <mxCell id="59" value="" style="rounded=0;whiteSpace=wrap;html=1;" parent="1" vertex="1">
                    <mxGeometry x="910" y="-1330" width="770" height="60" as="geometry"/>
                </mxCell>
                <mxCell id="60" value="Articulos" style="text;html=1;strokeColor=none;fillColor=none;align=center;verticalAlign=middle;whiteSpace=wrap;rounded=0;" parent="1" vertex="1">
                    <mxGeometry x="1160" y="-1310" width="60" height="30" as="geometry"/>
                </mxCell>
                <mxCell id="61" value="Pedidos" style="text;html=1;strokeColor=none;fillColor=none;align=center;verticalAlign=middle;whiteSpace=wrap;rounded=0;" parent="1" vertex="1">
                    <mxGeometry x="1390" y="-1310" width="60" height="30" as="geometry"/>
                </mxCell>
                <mxCell id="62" value="" style="endArrow=classic;html=1;exitX=1;exitY=0.5;exitDx=0;exitDy=0;entryX=0.002;entryY=0.358;entryDx=0;entryDy=0;entryPerimeter=0;" parent="1" source="17" target="58" edge="1">
                    <mxGeometry width="50" height="50" relative="1" as="geometry">
                        <mxPoint x="660" y="-970" as="sourcePoint"/>
                        <mxPoint x="710" y="-1020" as="targetPoint"/>
                    </mxGeometry>
                </mxCell>
                <mxCell id="63" value="Pedir" style="shape=ext;double=1;rounded=0;whiteSpace=wrap;html=1;" parent="1" vertex="1">
                    <mxGeometry x="1235" y="-1250" width="120" height="50" as="geometry"/>
                </mxCell>
                <mxCell id="64" value="Artículos Disponibles" style="swimlane;childLayout=stackLayout;resizeParent=1;resizeParentMax=0;startSize=20;html=1;" parent="1" vertex="1">
                    <mxGeometry x="957.5000000000005" y="-1180" width="675.75" height="480" as="geometry"/>
                </mxCell>
                <mxCell id="65" value="Nombre" style="swimlane;startSize=20;html=1;" parent="64" vertex="1">
                    <mxGeometry y="20" width="140" height="460" as="geometry"/>
                </mxCell>
                <mxCell id="66" value="Addidas 50" style="text;html=1;strokeColor=none;fillColor=none;align=center;verticalAlign=middle;whiteSpace=wrap;rounded=0;" parent="65" vertex="1">
                    <mxGeometry x="36.25" y="30" width="67.5" height="30" as="geometry"/>
                </mxCell>
                <mxCell id="71" value="Descripción" style="swimlane;startSize=20;html=1;" parent="64" vertex="1">
                    <mxGeometry x="140" y="20" width="140" height="460" as="geometry"/>
                </mxCell>
                <mxCell id="81" value="Alta Calidad" style="text;html=1;strokeColor=none;fillColor=none;align=center;verticalAlign=middle;whiteSpace=wrap;rounded=0;" parent="71" vertex="1">
                    <mxGeometry x="36.249999999999545" y="35" width="67.5" height="20" as="geometry"/>
                </mxCell>
                <mxCell id="67" value="Cantidad" style="swimlane;startSize=20;html=1;" parent="64" vertex="1">
                    <mxGeometry x="280" y="20" width="130.75" height="460" as="geometry"/>
                </mxCell>
                <mxCell id="76" value="-" style="text;html=1;strokeColor=none;fillColor=none;align=center;verticalAlign=middle;whiteSpace=wrap;rounded=0;" parent="67" vertex="1">
                    <mxGeometry x="-10.75" y="30" width="60" height="30" as="geometry"/>
                </mxCell>
                <mxCell id="75" value="+" style="text;html=1;strokeColor=none;fillColor=none;align=center;verticalAlign=middle;whiteSpace=wrap;rounded=0;" parent="67" vertex="1">
                    <mxGeometry x="70.75" y="30" width="60" height="30" as="geometry"/>
                </mxCell>
                <mxCell id="77" value="1" style="shape=ext;double=1;rounded=1;whiteSpace=wrap;html=1;" parent="67" vertex="1">
                    <mxGeometry x="42.879999999999995" y="30" width="45" height="30" as="geometry"/>
                </mxCell>
                <mxCell id="78" value="Precio sin impuesto" style="swimlane;startSize=20;html=1;" parent="64" vertex="1">
                    <mxGeometry x="410.75" y="20" width="120" height="460" as="geometry"/>
                </mxCell>
                <mxCell id="68" value="50" style="text;html=1;strokeColor=none;fillColor=none;align=center;verticalAlign=middle;whiteSpace=wrap;rounded=0;" parent="78" vertex="1">
                    <mxGeometry x="32.5" y="36" width="60" height="30" as="geometry"/>
                </mxCell>
                <mxCell id="69" value="Precio con impuesto" style="swimlane;startSize=20;html=1;" parent="64" vertex="1">
                    <mxGeometry x="530.75" y="20" width="145" height="460" as="geometry"/>
                </mxCell>
                <mxCell id="70" value="55" style="text;html=1;strokeColor=none;fillColor=none;align=center;verticalAlign=middle;whiteSpace=wrap;rounded=0;" parent="69" vertex="1">
                    <mxGeometry x="42.5" y="36" width="60" height="30" as="geometry"/>
                </mxCell>
                <mxCell id="82" value="" style="rounded=1;whiteSpace=wrap;html=1;strokeWidth=2;fillWeight=4;hachureGap=8;hachureAngle=45;fillColor=#1ba1e2;sketch=1;" vertex="1" parent="1">
                    <mxGeometry x="930" y="-1320" width="70" height="40" as="geometry"/>
                </mxCell>
                <mxCell id="83" value="" style="rounded=1;whiteSpace=wrap;html=1;strokeWidth=2;fillWeight=4;hachureGap=8;hachureAngle=45;fillColor=#1ba1e2;sketch=1;" vertex="1" parent="1">
                    <mxGeometry x="70" y="-1060" width="70" height="40" as="geometry"/>
                </mxCell>
                <mxCell id="84" value="" style="rounded=1;whiteSpace=wrap;html=1;strokeWidth=2;fillWeight=4;hachureGap=8;hachureAngle=45;fillColor=#1ba1e2;sketch=1;" vertex="1" parent="1">
                    <mxGeometry x="930" y="-530" width="70" height="40" as="geometry"/>
                </mxCell>
            </root>
        </mxGraphModel>
    </diagram>
</mxfile>